<svg xmlns="http://www.w3.org/2000/svg" width="256" height="256" viewBox="0 0 100 100"><rect width="100" height="100" rx="20" fill="#008573"></rect><path d="M44.44 85.80Q43.04 88.59 40.73 88.59Q38.43 88.59 38.43 86.23L38.43 86.23Q38.43 84.78 39.82 83.06L39.82 83.06Q42.61 79.73 45.14 75.38L45.14 75.38L47.88 70.49L15.97 12.00L47.29 12.00L62.65 44.39L76.40 19.95Q77.90 17.16 78.98 14.28Q80.05 11.41 81.82 11.41L81.82 11.41Q84.03 11.41 84.03 13.61L84.03 13.61Q84.03 14.90 83.06 16.56L83.06 16.56L46.32 82.09Q45.73 83.17 45.35 83.86L45.35 83.86L44.44 85.80Z" fill="#fff"></path></svg>
