<?xml version="1.0" encoding="UTF-8" standalone="no"?>
<svg
   version="1.0"
   width="658.45001pt"
   height="624pt"
   viewBox="0 0 658.45001 624"
   preserveAspectRatio="xMidYMid"
   id="svg26"
   sodipodi:docname="OIG1.EEVoiodsWOhfuFvc.svg"
   inkscape:version="1.4 (e7c3feb1, 2024-10-09)"
   xmlns:inkscape="http://www.inkscape.org/namespaces/inkscape"
   xmlns:sodipodi="http://sodipodi.sourceforge.net/DTD/sodipodi-0.dtd"
   xmlns="http://www.w3.org/2000/svg"
   xmlns:svg="http://www.w3.org/2000/svg">
  <defs
     id="defs26" />
  <sodipodi:namedview
     id="namedview26"
     pagecolor="#ffffff"
     bordercolor="#000000"
     borderopacity="0.25"
     inkscape:showpageshadow="2"
     inkscape:pageopacity="0.0"
     inkscape:pagecheckerboard="0"
     inkscape:deskcolor="#d1d1d1"
     inkscape:document-units="pt"
     inkscape:zoom="0.16545052"
     inkscape:cx="323.35952"
     inkscape:cy="105.7718"
     inkscape:window-width="1344"
     inkscape:window-height="800"
     inkscape:window-x="0"
     inkscape:window-y="39"
     inkscape:window-maximized="0"
     inkscape:current-layer="g26" />
  <g
     transform="matrix(0.1,0,0,-0.1,-132.68615,838.40461)"
     fill="#000000"
     stroke="none"
     id="g26">
    <g
       id="g27"
       transform="translate(-498.63851,-815.95392)">
      <path
         d="m 4720,9118 c -12,-45 -48,-167 -80,-270 -32,-104 -66,-220 -76,-258 -13,-55 -21,-70 -35,-70 -34,0 -293,-71 -388,-107 -53,-19 -142,-58 -198,-85 l -101,-50 -89,55 c -49,30 -117,69 -150,85 -33,17 -80,44 -104,60 -24,16 -89,59 -145,95 -55,37 -107,67 -115,67 -37,0 -337,-237 -455,-360 -45,-47 -95,-101 -111,-120 l -30,-35 129,-275 c 72,-151 140,-289 153,-305 l 23,-31 -80,-124 c -130,-202 -244,-457 -263,-592 l -7,-47 -47,-7 c -25,-3 -170,-37 -321,-74 -151,-38 -300,-74 -332,-80 l -56,-11 -9,-107 c -10,-133 -10,-568 0,-643 l 8,-56 57,-13 c 31,-7 129,-35 217,-62 88,-28 216,-66 285,-85 174,-49 168,-46 175,-90 30,-179 129,-439 209,-550 21,-29 36,-56 34,-61 -10,-24 -312,-483 -352,-534 -20,-27 -26,-44 -22,-60 6,-22 184,-239 332,-404 38,-43 87,-100 108,-126 45,-56 67,-60 126,-23 43,27 144,75 225,107 68,26 259,123 303,153 19,13 40,21 46,18 6,-4 41,-26 78,-50 201,-127 566,-279 774,-321 l 88,-18 22,-69 c 12,-39 65,-194 117,-345 l 94,-275 371,-3 371,-2 16,57 c 9,32 39,128 67,213 28,85 68,216 88,290 l 36,135 58,7 c 229,29 637,198 897,371 26,17 27,17 57,-8 17,-14 111,-64 209,-112 98,-48 198,-99 224,-114 25,-14 67,-38 94,-54 l 49,-27 31,38 c 16,21 75,91 131,154 106,122 297,347 327,386 18,23 18,25 -29,111 -73,135 -176,308 -248,413 l -64,95 19,30 c 32,48 98,181 118,238 27,74 78,272 87,335 4,29 11,55 16,58 5,3 50,14 101,25 51,10 155,38 232,62 77,24 194,58 261,76 l 121,33 6,127 c 4,69 7,189 7,266 0,143 -18,394 -29,407 -8,9 -581,153 -676,171 l -70,12 -16,65 c -42,170 -144,390 -264,573 -41,63 -75,117 -75,119 0,3 21,36 46,74 25,37 78,136 118,219 40,82 92,189 116,237 l 43,87 -41,48 c -84,101 -287,280 -466,411 l -86,64 -29,-19 c -399,-250 -511,-321 -534,-340 -36,-29 -48,-29 -95,0 -89,56 -316,141 -539,202 l -101,28 -67,191 c -65,187 -124,367 -145,446 l -11,40 H 5116 4742 Z M 3310,8408 c 66,-21 298,-119 426,-180 39,-19 118,-65 176,-101 l 105,-67 104,49 c 142,67 265,106 442,142 567,114 1109,61 1578,-154 l 76,-35 37,21 c 20,12 85,52 144,88 103,65 282,155 393,200 147,59 370,79 434,39 46,-28 51,-48 17,-61 -15,-5 -36,-14 -47,-19 -11,-5 -87,-11 -170,-14 -82,-2 -168,-10 -190,-16 -96,-28 -276,-115 -550,-267 -101,-56 -367,-227 -607,-391 -86,-59 -223,-150 -303,-202 -159,-103 -174,-115 -150,-123 24,-10 55,-69 55,-105 0,-30 2,-33 23,-26 12,3 34,12 48,20 29,14 227,94 234,94 16,0 -2,-28 -58,-89 -112,-121 -188,-271 -222,-436 -9,-44 -17,-80 -18,-81 -4,-5 -337,-7 -340,-3 -2,2 -15,55 -30,117 -15,61 -41,140 -57,175 -30,59 -157,247 -200,292 -11,12 -20,24 -20,27 0,6 109,-33 253,-91 43,-17 79,-31 80,-31 1,0 3,19 3,42 1,37 7,48 44,80 24,21 41,40 38,43 -2,3 -40,27 -84,53 -151,93 -416,262 -514,329 -333,227 -570,364 -840,482 -232,103 -267,112 -454,118 l -158,6 27,-42 c 24,-35 105,-101 126,-101 8,0 230,-161 314,-228 120,-97 475,-324 593,-380 l 77,-37 -50,-7 c -27,-3 -72,-7 -98,-7 -69,-1 -186,-27 -275,-61 -300,-115 -545,-386 -622,-690 -19,-75 -21,-104 -17,-250 5,-192 21,-261 86,-390 77,-150 175,-262 314,-358 304,-210 682,-229 994,-50 92,52 182,133 267,240 101,126 149,231 185,408 l 18,85 171,3 171,2 6,-37 c 64,-390 336,-697 700,-789 188,-48 337,-42 540,21 206,64 424,255 526,460 75,153 92,228 93,420 1,137 -2,172 -22,244 -62,227 -215,444 -404,572 -157,107 -312,158 -510,166 -76,3 -138,9 -138,12 0,3 73,47 163,98 200,114 424,254 582,366 66,46 162,112 213,146 50,34 92,65 92,69 0,17 99,110 128,120 27,9 33,7 57,-18 19,-20 25,-34 20,-49 -8,-26 -157,-147 -290,-235 -55,-36 -136,-91 -180,-122 -44,-30 -101,-66 -127,-80 -27,-13 -48,-27 -48,-31 0,-3 49,-56 108,-117 369,-378 590,-791 669,-1251 25,-146 25,-539 0,-688 -43,-256 -94,-420 -193,-623 -142,-293 -354,-558 -622,-782 -289,-240 -769,-441 -1207,-504 -118,-17 -523,-17 -630,1 -605,97 -1074,333 -1460,732 -183,189 -325,403 -432,649 -81,188 -141,411 -162,612 -22,200 -8,508 35,736 52,282 201,595 414,866 80,103 284,319 329,349 14,9 23,18 20,20 -2,2 -45,29 -94,59 -50,30 -119,77 -155,104 -36,27 -132,92 -212,144 -136,87 -149,99 -168,142 -36,83 -36,104 -4,124 16,10 31,22 34,25 5,7 68,26 110,33 47,8 175,-6 240,-26 z m 904,-1112 c 138,-36 204,-74 317,-186 80,-79 103,-109 138,-180 99,-205 115,-434 44,-635 -73,-204 -260,-388 -469,-459 -91,-31 -141,-39 -237,-38 -171,1 -355,79 -501,213 -172,157 -248,347 -232,579 12,167 42,253 143,397 83,119 160,188 276,246 178,90 337,109 521,63 z m 2175,4 c 252,-61 452,-247 544,-507 30,-84 31,-95 32,-248 0,-144 -2,-167 -24,-230 -61,-176 -159,-296 -328,-397 -165,-100 -337,-137 -488,-105 -316,67 -562,294 -630,582 -28,116 -14,300 35,458 30,96 116,219 215,306 77,67 225,133 345,154 71,12 220,6 299,-13 z"
         id="path2" />
      <path
         d="m 4940,5761 c -203,-68 -330,-121 -444,-187 -97,-56 -138,-88 -275,-213 -178,-164 -302,-326 -421,-556 -35,-66 -76,-142 -92,-169 -16,-26 -28,-50 -26,-52 2,-2 35,29 73,68 119,122 271,234 453,337 l 94,52 46,-38 c 46,-36 207,-177 227,-198 67,-67 332,-485 488,-769 32,-59 61,-106 66,-106 4,0 29,42 56,93 104,198 311,545 431,723 30,45 72,79 168,138 16,10 62,47 102,82 40,35 78,64 85,64 20,0 268,-163 348,-228 42,-34 113,-99 159,-144 45,-45 82,-76 82,-70 0,25 -146,294 -218,402 -148,221 -254,338 -432,473 -187,143 -315,210 -535,280 -189,60 -245,77 -253,76 -4,0 -86,-26 -182,-58 z m 338,-527 c 119,-17 375,-81 466,-115 l 60,-22 -40,-34 c -120,-103 -335,-153 -653,-153 -218,0 -394,36 -541,110 -91,46 -110,64 -83,79 52,27 334,103 488,131 126,23 172,24 303,4 z"
         id="path5" />
      <path
         d="m 3929,6827 c -81,-34 -125,-72 -155,-133 -23,-47 -26,-64 -22,-117 14,-173 168,-277 330,-221 224,76 240,389 25,479 -51,21 -113,18 -178,-8 z m 215,-31 c 53,-22 76,-51 76,-93 0,-75 -63,-140 -123,-129 -41,8 -94,61 -103,103 -12,58 43,131 99,133 10,0 33,-6 51,-14 z"
         id="path6" />
      <path
         d="m 4237,5898 c 28,-6 49,-6 60,1 14,8 4,10 -42,10 l -60,-1 z"
         id="path7" />
      <path
         d="m 6146,6820 c -74,-29 -120,-80 -146,-159 -18,-58 -20,-73 -10,-116 46,-206 272,-273 423,-127 80,77 100,154 69,259 -23,76 -62,121 -124,147 -51,22 -152,20 -212,-4 z m 238,-24 c 76,-32 99,-114 49,-174 -50,-59 -128,-59 -177,-1 -51,61 -26,157 47,178 44,13 44,13 81,-3 z"
         id="path8" />
      <path
         d="m 6298,5963 c 7,-3 16,-2 19,1 4,3 -2,6 -13,5 -11,0 -14,-3 -6,-6 z"
         id="path9" />
      <path
         d="m 6533,5943 c 9,-2 23,-2 30,0 6,3 -1,5 -18,5 -16,0 -22,-2 -12,-5 z"
         id="path10" />
      <path
         d="m 5736,9023 c 4,-16 28,-85 55,-155 26,-70 51,-143 55,-162 5,-32 11,-37 48,-47 112,-29 392,-131 441,-161 17,-10 37,-18 45,-18 9,0 65,30 125,66 61,37 138,80 173,96 34,17 60,34 56,39 -6,11 -197,103 -350,169 -158,69 -400,144 -632,195 -20,5 -22,3 -16,-22 z"
         id="path11" />
      <path
         d="m 4365,9015 c -115,-29 -265,-76 -385,-122 -118,-45 -460,-208 -460,-220 0,-5 27,-21 60,-37 32,-16 108,-57 167,-92 59,-35 111,-64 116,-64 5,0 22,10 39,21 62,44 405,169 464,169 18,0 25,7 30,28 3,15 27,98 54,185 55,182 63,169 -85,132 z"
         id="path12" />
      <path
         d="m 2498,7858 c -106,-139 -320,-535 -392,-725 -33,-86 -107,-326 -102,-330 1,-2 80,17 174,42 94,24 195,48 225,51 l 54,6 27,101 c 31,113 92,249 184,409 l 62,106 -91,174 c -50,95 -96,179 -103,186 -10,11 -17,7 -38,-20 z"
         id="path13" />
      <path
         d="m 7615,7718 c -43,-84 -86,-165 -97,-180 l -19,-28 64,-107 c 36,-60 77,-133 92,-163 33,-66 102,-248 110,-293 l 7,-32 216,-54 c 120,-29 223,-56 230,-58 17,-6 11,16 -43,177 -94,279 -180,460 -331,695 -92,144 -130,195 -144,195 -4,0 -42,-69 -85,-152 z"
         id="path14" />
      <path
         d="m 8240,5551 c -23,-14 -319,-98 -371,-105 l -45,-7 -11,-77 c -15,-96 -51,-208 -110,-334 l -46,-97 38,-56 c 20,-31 73,-120 117,-198 43,-78 83,-146 88,-151 10,-10 123,219 175,354 81,210 108,292 144,440 59,237 60,254 21,231 z"
         id="path15" />
      <path
         d="m 1976,5513 c 48,-277 147,-559 287,-823 40,-74 73,-141 75,-147 6,-23 17,-13 42,39 14,28 39,70 56,92 17,23 49,75 72,116 22,41 52,90 66,109 14,19 26,39 26,44 0,5 -15,35 -34,66 -38,63 -117,267 -135,351 -20,88 -21,90 -45,90 -13,0 -56,9 -97,20 -195,52 -304,80 -311,80 -5,0 -6,-17 -2,-37 z"
         id="path16" />
      <path
         d="m 6610,3799 c -161,-104 -535,-254 -711,-284 -35,-7 -38,-10 -54,-68 -10,-34 -35,-115 -56,-180 -36,-108 -46,-157 -35,-157 59,0 434,113 583,176 174,73 460,232 601,334 61,45 73,60 50,60 -17,0 -221,99 -275,133 l -41,26 z"
         id="path17" />
      <path
         d="m 3504,3790 c -38,-19 -106,-52 -152,-73 l -82,-38 57,-50 c 152,-133 509,-316 808,-414 160,-52 352,-102 360,-93 4,3 -19,87 -50,185 -32,98 -59,184 -61,191 -2,6 -14,12 -26,12 -73,0 -394,123 -649,249 l -136,67 z"
         id="path18" />
    </g>
  </g>
</svg>
